<?xml version="1.0" encoding="UTF-8" standalone="no"?>
<svg width="94px" height="59px" viewBox="0 0 94 59" version="1.1" xmlns="http://www.w3.org/2000/svg" xmlns:xlink="http://www.w3.org/1999/xlink" xmlns:sketch="http://www.bohemiancoding.com/sketch/ns">
    <title>logo_bhf</title>
    <description>Created with Sketch (http://www.bohemiancoding.com/sketch)</description>
    <defs></defs>
    <g id="Page-1" stroke="none" stroke-width="1" fill="none" fill-rule="evenodd" sketch:type="MSPage">
        <path d="M8.13040865,2.17367788 L8.13040865,29.5414663 C11.1051831,26.456515 14.4765437,24.9140625 18.2445913,24.9140625 C22.5855586,24.9140625 26.1993045,26.5336377 29.0859375,29.7728365 C31.9725705,32.9900001 33.4158654,37.0003766 33.4158654,41.8040865 C33.4158654,46.762044 31.961553,50.8605607 29.0528846,54.0997596 C26.1662516,57.3169231 22.5194531,58.9254808 18.1123798,58.9254808 C14.3884029,58.9254808 11.0611124,57.4932034 8.13040865,54.6286058 L8.13040865,58 L0.693509615,58 L0.693509615,2.17367788 L8.13040865,2.17367788 Z M25.8137019,42.1346154 C25.8137019,39.0496641 24.9763706,36.53767 23.3016827,34.5985577 C21.6049595,32.6153747 19.4785785,31.6237981 16.922476,31.6237981 C14.1900905,31.6237981 11.9645519,32.5823221 10.2457933,34.499399 C8.54907004,36.3944406 7.70072115,38.8623646 7.70072115,41.9032452 C7.70072115,45.0322672 8.53805252,47.5332438 10.2127404,49.40625 C11.8874282,51.3233269 14.0909319,52.281851 16.8233173,52.281851 C19.4014552,52.281851 21.5388537,51.3233269 23.2355769,49.40625 C24.9543355,47.4671377 25.8137019,45.0432838 25.8137019,42.1346154 Z M41.2824519,2.17367788 L48.719351,2.17367788 L48.719351,28.483774 C51.363595,26.1039544 54.2832372,24.9140625 57.4783654,24.9140625 C61.1142009,24.9140625 64.0228256,26.0929369 66.2043269,28.4507212 C68.0552977,30.5000102 68.9807692,33.7722131 68.9807692,38.2674279 L68.9807692,58 L61.5438702,58 L61.5438702,38.9615385 C61.5438702,36.3834006 61.0866432,34.5159313 60.1721755,33.3590745 C59.2577078,32.2022178 57.7868691,31.6237981 55.7596154,31.6237981 C53.1594421,31.6237981 51.3305341,32.4280769 50.2728365,34.0366587 C49.2371743,35.6672758 48.719351,38.4657254 48.719351,42.4320913 L48.719351,58 L41.2824519,58 L41.2824519,2.17367788 Z M86.1021635,32.7475962 L86.1021635,58 L78.6322115,58 L78.6322115,32.7475962 L75.9879808,32.7475962 L75.9879808,25.8064904 L78.6322115,25.8064904 L78.6322115,13.3786058 C78.6322115,9.32409832 79.3373327,6.45954363 80.7475962,4.78485577 C82.6867084,2.44910691 85.507193,1.28125 89.2091346,1.28125 C90.5312566,1.28125 92.1949018,1.66686313 94.2001202,2.43810096 L94.2001202,10.0402644 L93.4399038,9.64362981 C91.8313221,8.82832124 90.5092199,8.42067308 89.4735577,8.42067308 C88.1514357,8.42067308 87.2590167,8.89442635 86.796274,9.84194712 C86.3335313,10.7674325 86.1021635,12.5522704 86.1021635,15.1965144 L86.1021635,25.8064904 L94.2001202,25.8064904 L94.2001202,32.7475962 L86.1021635,32.7475962 Z" id="bhf" fill="#EAEAEA" sketch:type="MSShapeGroup"></path>
    </g>
</svg>